<?xml version="1.0" encoding="UTF-8"?>
<svg id="Layer_1" xmlns="http://www.w3.org/2000/svg" version="1.1" viewBox="0 0 2970.42 626.12">
  <!-- Generator: Adobe Illustrator 29.8.3, SVG Export Plug-In . SVG Version: 2.1.1 Build 3)  -->
  <defs>
    <style>
      .st0, .st1 {
        fill-rule: evenodd;
      }

      .st0, .st2 {
        fill: #221f1f;
      }

      .st1 {
        fill: #f90;
      }
    </style>
  </defs>
  <g>
    <path class="st1" d="M1476.41,512.44c-94.23,69.46-230.82,106.51-348.41,106.51-164.89,0-313.33-60.99-425.63-162.42-8.82-7.97-.92-18.85,9.67-12.64,121.2,70.52,271.05,112.94,425.85,112.94,104.39,0,219.24-21.6,324.84-66.42,15.95-6.78,29.29,10.45,13.69,22.02"/>
    <path class="st1" d="M1515.58,467.62c-12-15.39-79.62-7.27-109.97-3.67-9.25,1.13-10.66-6.92-2.33-12.71,53.86-37.9,142.23-26.96,152.54-14.26,10.3,12.78-2.68,101.36-53.29,143.64-7.76,6.49-15.18,3.04-11.72-5.57,11.36-28.38,36.85-91.97,24.78-107.43"/>
    <path class="st0" d="M1407.73,183.65v-36.85c0-5.58,4.24-9.32,9.32-9.32h164.96c5.29,0,9.53,3.81,9.53,9.32v31.55c-.07,5.29-4.52,12.21-12.43,23.15l-85.48,122.04c31.76-.78,65.29,3.95,94.09,20.19,6.49,3.67,8.26,9.03,8.75,14.33v39.31c0,5.37-5.93,11.65-12.14,8.4-50.75-26.61-118.16-29.5-174.28.28-5.72,3.11-11.71-3.1-11.71-8.47v-37.34c0-6,.07-16.24,6.07-25.34l99.03-142.02h-86.19c-5.29,0-9.53-3.74-9.53-9.25M805.98,413.55h-50.19c-4.8-.35-8.61-3.95-8.97-8.54V147.44c0-5.15,4.31-9.25,9.67-9.25h46.8c4.87.21,8.75,3.95,9.11,8.61v33.67h.92c12.21-32.54,35.15-47.71,66.07-47.71s51.03,15.17,65.15,47.71c12.14-32.54,39.74-47.71,69.32-47.71,21.03,0,44.04,8.68,58.09,28.16,15.88,21.67,12.64,53.15,12.64,80.75l-.07,162.56c0,5.15-4.31,9.32-9.67,9.32h-50.12c-5.01-.35-9.04-4.38-9.04-9.32v-136.52c0-10.87.99-37.98-1.41-48.28-3.74-17.29-14.96-22.16-29.51-22.16-12.14,0-24.85,8.12-30,21.11-5.15,12.99-4.66,34.73-4.66,49.34v136.51c0,5.15-4.31,9.32-9.67,9.32h-50.12c-5.08-.35-9.04-4.38-9.04-9.32l-.07-136.51c0-28.73,4.73-71.01-30.92-71.01s-34.66,41.22-34.66,71.01v136.51c0,5.15-4.31,9.32-9.67,9.32M1733.55,132.76c74.47,0,114.77,63.95,114.77,145.26s-44.54,140.89-114.77,140.89-112.94-63.95-112.94-143.64,40.3-142.51,112.94-142.51M1733.97,185.35c-36.99,0-39.32,50.4-39.32,81.81s-.49,98.68,38.89,98.68,40.73-54.21,40.73-87.24c0-21.74-.92-47.72-7.48-68.33-5.65-17.93-16.87-24.92-32.82-24.92M1944.88,413.55h-49.98c-5.01-.35-9.04-4.38-9.04-9.32l-.07-257.64c.43-4.73,4.59-8.4,9.67-8.4h46.52c4.38.21,7.97,3.18,8.97,7.2v39.39h.92c14.05-35.22,33.74-52.02,68.4-52.02,22.52,0,44.47,8.11,58.59,30.35,13.13,20.61,13.13,55.27,13.13,80.18v162.13c-.57,4.52-4.73,8.12-9.67,8.12h-50.33c-4.59-.35-8.4-3.74-8.89-8.12v-139.9c0-28.16,3.25-69.38-31.41-69.38-12.21,0-23.43,8.18-29.01,20.61-7.06,15.74-7.97,31.41-7.97,48.77v138.7c-.07,5.15-4.45,9.32-9.81,9.32M2123.39,393.08c0-12.99,11.08-23.43,24.71-23.43s24.71,10.45,24.71,23.43-11.08,23.5-24.71,23.5-24.71-10.59-24.71-23.5M2655.11,413.62c-5.22-.21-9.32-4.24-9.32-9.32V146.74c.28-4.59,4.17-8.18,8.97-8.47h18.42c5.08,0,9.18,3.67,9.6,8.47v37.55c13.13-29.79,37.55-53.08,68.4-53.08h3.74c32.75,0,56.68,24.14,65.58,59.22,13.9-34.66,40.02-59.22,74.47-59.22h3.81c24.35,0,47.79,15.67,59.93,39.53,11.72,22.8,11.29,53.15,11.29,78.63l-.07,154.94c.07,4.94-3.95,8.97-8.97,9.32h-22.02c-4.8-.21-8.68-3.6-9.32-8.04v-156.21c0-18.42.92-37.98-6.56-54.78-7.62-17.15-22.24-27.88-37.91-28.66-17.5.85-33.6,13.62-44.04,30.85-13.55,22.24-13.06,42.28-13.06,68.26v140.68c-.64,4.24-4.38,7.55-8.97,7.9h-21.88c-5.22-.21-9.39-4.24-9.39-9.32l-.14-165.24c0-15.18-.92-33.04-7.9-46.66-8.12-15.53-22.66-25.69-37.91-26.47-15.81.92-31.76,12.99-41.22,27.03-12.21,17.93-14.54,40.09-14.54,62.89v148.44c0,4.94-4.02,8.97-9.04,9.32h-21.95ZM2503.92,418.99c-71.22,0-103.13-72.63-103.13-145.26,0-76.37,37.48-142.51,109.2-142.51h3.81c69.74,0,104.46,70.44,104.46,143.08,0,76.94-38.47,144.7-110.61,144.7h-3.74ZM2509.14,383.76c23.43-.78,41.93-15.32,52.87-39.53,9.81-21.74,11.72-46.66,11.72-70.51,0-25.98-2.83-53.08-15.04-75.32-10.94-19.41-29.72-31.76-49.62-32.47-22.16.78-42,15.81-51.95,38.96-8.97,20.05-11.72,46.66-11.72,68.82,0,24.92,3.25,53.71,13.55,75.39,10.02,20.54,29.29,33.88,50.19,34.66M2281.36,382.63c31.98-.99,48.78-26.61,55.69-59.79,1.41-4.16,4.59-7.34,9.25-7.34l21.11-.07c5.01.21,9.6,4.02,9.18,8.68-9.74,56.54-43.83,94.87-92.4,94.87h-3.81c-70.73,0-101.22-71.01-101.22-143.08s30.92-144.7,101.65-144.7h3.81c49.13,0,84.14,37.83,91.76,94.37,0,4.24-3.95,7.9-8.61,8.4l-22.09-.28c-4.66-.64-7.69-4.59-8.4-9.04-5.29-31.55-23.43-56.68-53.65-57.67-48.07,1.55-61.76,60.71-61.76,106.23s11.44,107.86,59.5,109.41M1276.22,290.52c0,19.55.5,35.85-9.39,53.22-7.98,14.12-20.68,22.8-34.73,22.8-19.27,0-30.56-14.68-30.56-36.35,0-42.77,38.33-50.54,74.68-50.54v10.87ZM1326.83,412.84c-3.32,2.96-8.12,3.18-11.86,1.2-16.66-13.84-19.69-20.26-28.8-33.46-27.53,28.09-47.08,36.49-82.73,36.49-42.28,0-75.1-26.05-75.1-78.21,0-40.73,22.02-68.47,53.51-82.02,27.25-12,65.29-14.12,94.37-17.44v-6.49c0-11.93.92-26.05-6.14-36.35-6.07-9.25-17.79-13.06-28.16-13.06-19.13,0-36.14,9.81-40.3,30.14-.85,4.52-4.17,8.97-8.76,9.18l-48.63-5.22c-4.09-.92-8.68-4.24-7.48-10.52,11.15-59.01,64.51-76.8,112.23-76.8,24.42,0,56.32,6.49,75.6,24.99,24.42,22.8,22.09,53.22,22.09,86.33v78.21c0,23.5,9.74,33.81,18.92,46.52,3.18,4.52,3.88,9.95-.21,13.34-10.23,8.54-28.44,24.42-38.47,33.32l-.07-.14ZM618.29,290.52c0,19.55.5,35.85-9.39,53.22-7.98,14.12-20.61,22.8-34.73,22.8-19.27,0-30.49-14.68-30.49-36.35,0-42.77,38.33-50.54,74.61-50.54v10.87ZM668.91,412.84c-3.32,2.96-8.12,3.18-11.86,1.2-16.66-13.84-19.62-20.26-28.8-33.46-27.53,28.09-47.01,36.49-82.73,36.49-42.21,0-75.1-26.05-75.1-78.21,0-40.73,22.09-68.47,53.5-82.02,27.25-12,65.29-14.12,94.37-17.44v-6.49c0-11.93.92-26.05-6.07-36.35-6.14-9.25-17.86-13.06-28.16-13.06-19.13,0-36.21,9.81-40.38,30.14-.85,4.52-4.17,8.97-8.68,9.18l-48.71-5.22c-4.09-.92-8.61-4.24-7.48-10.52,11.23-59.01,64.52-76.8,112.23-76.8,24.42,0,56.32,6.49,75.6,24.99,24.42,22.8,22.09,53.22,22.09,86.33v78.21c0,23.5,9.74,33.81,18.92,46.52,3.25,4.52,3.95,9.95-.14,13.34-10.23,8.54-28.44,24.42-38.47,33.32l-.14-.14Z"/>
  </g>
  <path class="st2" d="M241.24,38.4c2.13-.48,6.04-.57,11.98-.6,16.04.08,26.82-.18,41.59.11,4.65.17,7.27.58,8.55,1.76,1.56,1.51,1.34,4.03,1.43,6.34.11,34.88-.16,174.16.09,206.78.17,2.78.98,1.92,2.3.12,11.89-18.55,48.86-78.45,64.4-103.27,2.05-3.18,3.98-6.74,6.78-8.95,1.51-1.15,3.28-1.79,5.76-2.15,3.62-.52,8.98-.49,16.15-.5,16.57.11,30.44-.17,45.08.11,7.82.18,8.68,1.56,5.92,5.95-3.7,5.82-8.21,12.14-14.73,21.84-14.2,20.89-31.25,45.99-45.81,67.42-7.16,10.64-14.07,20.47-20.88,30.88-2.86,4.63-2.61,6.25.54,11.12,1.95,2.99,3.95,5.85,6.08,8.99,23.17,33.99,49.82,73.09,72.55,106.45,4.91,7.25,8.89,12.93,11.1,16.42.73,1.28,1.6,2.47,1.42,3.86-.33,1.44-3,1.81-8.44,1.94-15.32.22-30.67-.03-47.65.06-7.1-.01-12.38.02-15.93-.46-2.55-.35-4.32-.98-5.82-2.15-18.72-25.02-58.44-93.43-75.58-118.91-1.74-2.62-2.97-3.69-3.18-.08-.58,31.02.25,89.07-.35,113.57-.26,2.73-.63,5-2.96,6.36-4.05,1.91-9.35,1.47-13.98,1.64-14.72-.09-26.68.22-41.54-.12-4.69-.19-6.62-.66-7.31-1.93-1.44-37.49,0-326.88-.49-367.8.06-2.39-.12-4.12,2.84-4.77l.07-.02Z"/>
  <path class="st2" d="M110.55,302.82l-31.81-16.44c-33.23-16.97-49.84-42.59-49.84-76.88,0-23.68,8.13-42.68,24.39-56.99,16.26-14.32,37.82-21.47,64.68-21.47,23.33,0,45.77,5.66,67.33,16.97v48.25c-9.9-3.89-20.15-6.98-30.75-9.28s-19.44-3.45-26.51-3.45c-22.62,0-33.93,8.66-33.93,25.98,0,11.31,9.37,21.91,28.1,31.81l31.81,16.44c15.55,8.13,26.86,18.11,33.93,29.96,7.07,11.84,10.6,26.77,10.6,44.8,0,25.8-8.13,46.13-24.39,60.97-16.26,14.85-38,22.27-65.21,22.27-29.34,0-56.02-7.07-80.06-21.21v-48.25c30.04,11.31,53.73,16.97,71.05,16.97,10.96,0,19.26-2.65,24.92-7.95,5.66-5.3,8.48-12.72,8.48-22.27,0-12.37-7.6-22.44-22.8-30.22Z"/>
</svg>